{"title":"The Tick - TAS UNCUT 1994-1996 DVDrip XviD","uid":15193908,"size":8141472820,"categoryP":"video","categoryS":"tv_shows","magnet":"?xt=urn:btih:6872f5db8a23504b39c7ad0a6468daf6c1d2e9ba&amp;dn=The+Tick+-+TAS+UNCUT+1994-1996+DVDrip+XviD&amp;tr=udp%3A%2F%2Ftracker.leechers-paradise.org%3A6969&amp;tr=udp%3A%2F%2Fzer0day.ch%3A1337&amp;tr=udp%3A%2F%2Fopen.demonii.com%3A1337&amp;tr=udp%3A%2F%2Ftracker.coppersurfer.tk%3A6969&amp;tr=udp%3A%2F%2Fexodus.desync.com%3A6969","seeders":7,"leechers":1,"uploader":"TerminatorFan","files":36,"time":1467546300,"description":"All 36 episodes. (Complete Series)\r\n\r\n---------------\r\n* General *\r\n---------------\r\n\r\nComplete name                  : 1x01 The Tick vs. The Idea Men.avi\r\nFormat                         : AVI\r\nFormat/Info                    : Audio Video Interleave\r\nFile size                      : 202 MiB\r\nDuration                       : 20mn 13s\r\nOverall bit rate               : 1 396 Kbps\r\nWriting application            : Lavf55.43.100\r\n\r\n-------------\r\n* Video *\r\n-------------\r\n\r\nID                             : 0\r\nFormat                         : xvid\r\nCodec ID                       : xvid\r\nDuration                       : 20mn 13s\r\nBit rate                       : 1 191 Kbps\r\nWidth                          : 702 pixels\r\nHeight                         : 576 pixels\r\nDisplay aspect ratio           : 1.299\r\nFrame rate                     : 25.000 fps\r\nBits/(Pixel*Frame)             : 0.118\r\nStream size                    : 172 MiB (85%)\r\n\r\n-------------\r\n* Audio *\r\n-------------\r\n\r\nID                             : 1\r\nFormat                         : MPEG Audio\r\nFormat version                 : Version 1\r\nFormat profile                 : Layer 3\r\nMode                           : Joint stereo\r\nMode extension                 : MS Stereo\r\nCodec ID                       : 55\r\nCodec ID/Hint                  : MP3\r\nDuration                       : 20mn 13s\r\nBit rate mode                  : Constant\r\nBit rate                       : 192 Kbps\r\nChannel(s)                     : 2 channels\r\nSampling rate                  : 48.0 KHz\r\nCompression mode               : Lossy\r\nStream size                    : 27.8 MiB (14%)\r\nAlignment                      : Aligned on interleaves\r\nInterleave, duration           : 24 ms (0.60 video frame)\r\nInterleave, preload duration   : 24 ms\r\nTitle                          : Stereo\r\nWriting library                : LAME3.99.5\r\n\r\nThanks goes to the original encoder/provider, pBSNwXXQ.\r\n\r\nEnjoy &amp; Please Seed!","torrent":{"xt":"urn:btih:6872f5db8a23504b39c7ad0a6468daf6c1d2e9ba","amp;dn":"The+Tick+-+TAS+UNCUT+1994-1996+DVDrip+XviD","amp;tr":["udp%3A%2F%2Ftracker.leechers-paradise.org%3A6969","udp%3A%2F%2Fzer0day.ch%3A1337","udp%3A%2F%2Fopen.demonii.com%3A1337","udp%3A%2F%2Ftracker.coppersurfer.tk%3A6969","udp%3A%2F%2Fexodus.desync.com%3A6969"],"infoHash":"6872f5db8a23504b39c7ad0a6468daf6c1d2e9ba","infoHashBuffer":{"type":"Buffer","data":[104,114,245,219,138,35,80,75,57,199,173,10,100,104,218,246,193,210,233,186]},"announce":[],"urlList":[]}}